<svg width="1024" height="1024" xmlns="http://www.w3.org/2000/svg" fill="none">
 <mask fill="black" height="252" width="121" y="697.242" x="185.588" maskUnits="userSpaceOnUse" id="path-7-outside-1_187_134">
  <rect id="svg_1" height="252" width="121" y="697.242" x="185.588" fill="white"/>
  <path id="svg_2" d="m271.275,753.029c2.382,-3.582 3.649,-7.792 3.638,-12.095c-0.014,-5.758 -2.31,-11.275 -6.386,-15.342c-4.076,-4.066 -9.598,-6.35 -15.355,-6.35c-4.302,0 -8.508,1.277 -12.085,3.669c-3.576,2.391 -6.363,5.79 -8.007,9.767c-1.644,3.976 -2.071,8.351 -1.228,12.571c0.843,4.219 2.919,8.093 5.965,11.132c0.923,0.921 1.922,1.752 2.984,2.487l-32.898,145.931c-1.581,7.016 2.954,13.95 10.015,15.313c6.941,1.34 13.646,-3.227 14.941,-10.177l6.641,-35.642l0,43.101c0,5.582 4.525,10.108 10.107,10.108c5.613,0 10.151,-4.573 10.108,-10.185l-0.711,-92.964l7.74,87.129c0.492,5.546 5.793,9.361 11.208,8.068c4.577,-1.094 7.572,-5.488 6.916,-10.148l-21.057,-149.452c2.99,-1.678 5.552,-4.045 7.464,-6.921z" clip-rule="evenodd" fill-rule="evenodd"/>
 </mask>
 <defs>
  <linearGradient y2="0.37424" x2="0.0103" y1="0.59195" x1="0.90197" id="paint1_linear_187_134">
   <stop stop-color="#7696FF"/>
   <stop stop-color="#2659FE" offset="1"/>
  </linearGradient>
  <linearGradient y2="0.43548" x2="0.01718" y1="0.85846" x1="1.02234" id="paint0_linear_187_134">
   <stop stop-color="#7696FF"/>
   <stop stop-color="#2D5EFE" offset="1"/>
  </linearGradient>
 </defs>
 <g>
  <title>Layer 1</title>
  <path id="svg_5" stroke-width="21.2761" stroke="white" fill="url(#paint0_linear_187_134)" d="m750.129,332.579l0,341.451c0,1.52 -0.842,2.906 -2.17,3.612l-0.271,0.132l-205.025,90.347c-17.857,7.869 -38.147,8.058 -56.13,0.552l-0.854,-0.363l-209.341,-90.595c-1.497,-0.648 -2.467,-2.124 -2.467,-3.755l0,-341.381l476.258,0z"/>
  <rect id="svg_6" stroke-width="21.2761" stroke="white" fill="#2C4DBB" transform="rotate(-90 232.136 740.099)" height="41.734" width="321.187" y="740.099" x="232.136"/>
  <path id="svg_7" fill="#2C4DBB" d="m285.123,409.501l226.877,-9.001l227.286,9.001l0,101.267l-192.205,85.094c-20.925,9.264 -44.772,9.343 -65.758,0.218l-196.2,-85.312l0,-101.267z"/>
  <path id="svg_8" stroke-width="21.2761" stroke="white" fill="url(#paint1_linear_187_134)" d="m491.594,220.622l-437.7718,115.034c-4.5371,1.192 -4.9784,7.459 -0.6531,9.275l427.5309,179.526c20.28,8.516 43.135,8.509 63.411,-0.02l426.747,-179.507c4.321,-1.818 3.88,-8.081 -0.654,-9.274l-436.982,-115.025c-13.643,-3.591 -27.983,-3.595 -41.628,-0.009z"/>
  <path id="svg_9" fill="#2C4DBB" d="m242.776,436.094l242.313,-101.537c1.786,-0.749 3.784,-0.821 5.62,-0.205c6.976,2.342 7.328,12.078 0.538,14.917l-228.082,95.373l-20.389,-8.548z"/>
  <path id="svg_10" fill="#67CB8C" d="m271.275,753.029c2.382,-3.582 3.649,-7.792 3.638,-12.095c-0.014,-5.758 -2.31,-11.275 -6.386,-15.342c-4.076,-4.066 -9.598,-6.35 -15.355,-6.35c-4.302,0 -8.508,1.277 -12.085,3.669c-3.576,2.391 -6.363,5.79 -8.007,9.767c-1.644,3.976 -2.071,8.351 -1.228,12.571c0.843,4.219 2.919,8.093 5.965,11.132c0.923,0.921 1.922,1.752 2.984,2.487l-32.898,145.931c-1.581,7.016 2.954,13.95 10.015,15.313c6.941,1.34 13.646,-3.227 14.941,-10.177l6.641,-35.642l0,43.101c0,5.582 4.525,10.108 10.107,10.108c5.613,0 10.151,-4.573 10.108,-10.185l-0.711,-92.964l7.74,87.129c0.492,5.546 5.793,9.361 11.208,8.068c4.577,-1.094 7.572,-5.488 6.916,-10.148l-21.057,-149.452c2.99,-1.678 5.552,-4.045 7.464,-6.921z" clip-rule="evenodd" fill-rule="evenodd"/>
  <path id="svg_11" mask="url(#path-7-outside-1_187_134)" fill="white" d="m274.913,740.934l21.276,-0.051l0,0l-21.276,0.051zm-3.638,12.095l-17.717,-11.781l0,0l17.717,11.781zm-2.748,-27.437l-15.028,15.062l0,0l15.028,-15.062zm-15.355,-6.35l0,-21.276l0,21.276zm-12.085,3.669l-11.827,-17.687l0,0l11.827,17.687zm-9.235,22.338l-20.864,4.169l0,0l20.864,-4.169zm5.965,11.132l-15.027,15.062l0,0l15.027,-15.062zm2.984,2.487l20.755,4.679l3.157,-14.004l-11.805,-8.17l-12.107,17.495zm-32.898,145.931l-20.755,-4.679l0,0l20.755,4.679zm10.015,15.313l4.032,-20.891l0,0l-4.032,20.891zm14.941,-10.177l-20.916,-3.897l0,0l20.916,3.897zm6.641,-35.642l21.276,0l-42.192,-3.897l20.916,3.897zm20.215,43.024l-21.276,0.162l21.276,-0.162zm-0.711,-92.964l21.193,-1.883l-42.469,2.045l21.276,-0.162zm7.74,87.129l21.192,-1.882l-21.192,1.882zm11.208,8.068l-4.943,-20.694l0,0l4.943,20.694zm6.916,-10.148l21.068,-2.969l-21.068,2.969zm-21.057,-149.452l-10.413,-18.554l-12.685,7.119l2.03,14.404l21.068,-2.969zm-10.174,-18.964c0,0.093 -0.027,0.184 -0.079,0.262l35.433,23.563c4.714,-7.088 7.219,-15.416 7.198,-23.928l-42.552,0.103zm-0.138,-0.332c0.088,0.087 0.138,0.207 0.138,0.332l42.552,-0.103c-0.027,-11.391 -4.571,-22.306 -12.635,-30.352l-30.055,30.123zm-0.327,-0.136c0.122,0 0.24,0.049 0.327,0.136l30.055,-30.123c-8.064,-8.046 -18.99,-12.565 -30.382,-12.565l0,42.552zm-0.257,0.079c0.076,-0.052 0.166,-0.079 0.257,-0.079l0,-42.552c-8.513,0 -16.835,2.526 -23.912,7.258l23.655,35.373zm-0.173,0.21c0.036,-0.086 0.096,-0.159 0.173,-0.21l-23.655,-35.373c-7.076,4.733 -12.589,11.458 -15.842,19.325l39.324,16.258zm-0.026,0.272c-0.019,-0.091 -0.009,-0.186 0.026,-0.272l-39.324,-16.258c-3.252,7.866 -4.098,16.521 -2.43,24.869l41.728,-8.339zm0.128,0.241c-0.065,-0.065 -0.11,-0.149 -0.128,-0.241l-41.728,8.339c1.668,8.347 5.775,16.012 11.802,22.025l30.054,-30.123zm0.064,0.053c-0.022,-0.015 -0.044,-0.033 -0.064,-0.053l-30.054,30.123c1.825,1.821 3.802,3.466 5.903,4.92l24.215,-34.99zm-24.249,168.105l32.897,-145.931l-41.511,-9.358l-32.897,145.931l41.511,9.358zm-6.709,-10.257c4.73,0.913 7.768,5.558 6.709,10.257l-41.511,-9.358c-4.223,18.732 7.885,37.244 26.739,40.883l8.063,-41.782zm-10.007,6.817c0.867,-4.655 5.358,-7.714 10.007,-6.817l-8.063,41.782c18.531,3.576 36.431,-8.617 39.888,-27.171l-41.832,-7.794zm6.641,-35.642l-6.641,35.642l41.832,7.794l6.641,-35.642l-41.832,-7.794zm42.192,46.998l0,-43.101l-42.552,0l0,43.101l42.552,0zm-11.169,-11.169c6.169,0 11.169,5.001 11.169,11.169l-42.552,0c0,17.333 14.051,31.384 31.383,31.384l0,-42.553zm-11.168,11.254c-0.047,-6.201 4.967,-11.254 11.168,-11.254l0,42.553c17.427,0 31.516,-14.198 31.383,-31.624l-42.551,0.325zm-0.711,-92.964l0.711,92.964l42.551,-0.325l-0.711,-92.964l-42.551,0.325zm50.208,85.085l-7.739,-87.13l-42.386,3.765l7.74,87.13l42.385,-3.765zm-14.927,-10.744c7.212,-1.723 14.271,3.358 14.927,10.744l-42.385,3.765c1.641,18.476 19.303,31.188 37.345,26.879l-9.887,-41.388zm-9.209,13.514c-0.875,-6.205 3.114,-12.058 9.209,-13.514l9.887,41.388c15.249,-3.643 25.227,-18.285 23.04,-33.811l-42.136,5.937zm-21.057,-149.451l21.057,149.451l42.136,-5.937l-21.057,-149.451l-42.136,5.937zm10.815,-21.671c-0.041,0.062 -0.096,0.112 -0.16,0.148l20.825,37.108c5.916,-3.32 10.985,-8.004 14.768,-13.693l-35.433,-23.563z"/>
  <path id="svg_12" fill="#2C4DBB" d="m242.776,721.817c3.153,-1.386 6.685,-2.118 10.285,-2.118c3.579,0 7.067,0.723 10.173,2.069l0,-247.616l-20.458,0l0,247.665z" clip-rule="evenodd" fill-rule="evenodd"/>
 </g>
</svg>