<svg width="1024" height="1024" viewBox="0 0 1024 1024" fill="none" xmlns="http://www.w3.org/2000/svg">
<rect width="1024" height="1024" fill="white"/>
<circle cx="512" cy="493.791" r="397.291" fill="#D574CF"/>
<path d="M750.129 332.579V674.03C750.129 675.55 749.287 676.936 747.959 677.642L747.688 677.774L542.663 768.121C524.806 775.99 504.516 776.179 486.533 768.673L485.679 768.31L276.338 677.715C274.841 677.067 273.871 675.591 273.871 673.96V332.579H750.129Z" fill="url(#paint0_linear_187_134)" stroke="white" stroke-width="21.2761"/>
<rect x="232.136" y="740.099" width="321.187" height="41.734" transform="rotate(-90 232.136 740.099)" fill="#2C4DBB" stroke="white" stroke-width="21.2761"/>
<path d="M285.123 409.501L512 400.5L739.286 409.501V510.768L547.081 595.862C526.156 605.126 502.309 605.205 481.323 596.08L285.123 510.768V409.501Z" fill="#2C4DBB"/>
<path d="M491.594 220.622L53.8222 335.656C49.2851 336.848 48.8438 343.115 53.1691 344.931L480.7 524.457C500.98 532.973 523.835 532.966 544.111 524.437L970.858 344.93C975.179 343.112 974.738 336.849 970.204 335.656L533.222 220.631C519.579 217.04 505.239 217.036 491.594 220.622Z" fill="url(#paint1_linear_187_134)" stroke="white" stroke-width="21.2761"/>
<path d="M242.776 436.094L485.089 334.557C486.875 333.808 488.873 333.736 490.709 334.352C497.685 336.694 498.037 346.43 491.247 349.269L263.165 444.642L242.776 436.094Z" fill="#2C4DBB"/>
<mask id="path-7-outside-1_187_134" maskUnits="userSpaceOnUse" x="185.588" y="697.242" width="121" height="252" fill="black">
<rect fill="white" x="185.588" y="697.242" width="121" height="252"/>
<path fill-rule="evenodd" clip-rule="evenodd" d="M271.275 753.029C273.657 749.447 274.924 745.237 274.913 740.934C274.899 735.176 272.603 729.659 268.527 725.592C264.451 721.526 258.929 719.242 253.172 719.242C248.87 719.242 244.664 720.519 241.087 722.911C237.511 725.302 234.724 728.701 233.08 732.678C231.436 736.654 231.009 741.029 231.852 745.249C232.695 749.468 234.771 753.342 237.817 756.381C238.74 757.302 239.739 758.133 240.801 758.868L207.903 904.799C206.322 911.815 210.857 918.749 217.918 920.112C224.859 921.452 231.564 916.885 232.859 909.935L239.5 874.293V917.394C239.5 922.976 244.025 927.502 249.607 927.502C255.22 927.502 259.758 922.929 259.715 917.317L259.004 824.353L266.744 911.482C267.236 917.028 272.537 920.843 277.952 919.55C282.529 918.456 285.524 914.062 284.868 909.402L263.811 759.95C266.801 758.272 269.363 755.905 271.275 753.029Z"/>
</mask>
<path fill-rule="evenodd" clip-rule="evenodd" d="M271.275 753.029C273.657 749.447 274.924 745.237 274.913 740.934C274.899 735.176 272.603 729.659 268.527 725.592C264.451 721.526 258.929 719.242 253.172 719.242C248.87 719.242 244.664 720.519 241.087 722.911C237.511 725.302 234.724 728.701 233.08 732.678C231.436 736.654 231.009 741.029 231.852 745.249C232.695 749.468 234.771 753.342 237.817 756.381C238.74 757.302 239.739 758.133 240.801 758.868L207.903 904.799C206.322 911.815 210.857 918.749 217.918 920.112C224.859 921.452 231.564 916.885 232.859 909.935L239.5 874.293V917.394C239.5 922.976 244.025 927.502 249.607 927.502C255.22 927.502 259.758 922.929 259.715 917.317L259.004 824.353L266.744 911.482C267.236 917.028 272.537 920.843 277.952 919.55C282.529 918.456 285.524 914.062 284.868 909.402L263.811 759.95C266.801 758.272 269.363 755.905 271.275 753.029Z" fill="#67CB8C"/>
<path d="M274.913 740.934L296.189 740.883V740.883L274.913 740.934ZM271.275 753.029L253.558 741.248V741.248L271.275 753.029ZM268.527 725.592L253.499 740.654L253.499 740.654L268.527 725.592ZM253.172 719.242L253.172 697.966L253.172 719.242ZM241.087 722.911L229.26 705.224L229.26 705.224L241.087 722.911ZM231.852 745.249L210.988 749.418L210.988 749.418L231.852 745.249ZM237.817 756.381L222.79 771.443L222.79 771.443L237.817 756.381ZM240.801 758.868L261.556 763.547L264.713 749.543L252.908 741.373L240.801 758.868ZM207.903 904.799L187.148 900.12H187.148L207.903 904.799ZM217.918 920.112L221.95 899.221L221.95 899.221L217.918 920.112ZM232.859 909.935L211.943 906.038H211.943L232.859 909.935ZM239.5 874.293H260.776L218.584 870.396L239.5 874.293ZM259.715 917.317L238.439 917.479L259.715 917.317ZM259.004 824.353L280.197 822.47L237.728 824.515L259.004 824.353ZM266.744 911.482L287.936 909.6L266.744 911.482ZM277.952 919.55L273.009 898.856L273.009 898.856L277.952 919.55ZM284.868 909.402L305.936 906.433L284.868 909.402ZM263.811 759.95L253.398 741.396L240.713 748.515L242.743 762.919L263.811 759.95ZM253.637 740.986C253.637 741.079 253.61 741.17 253.558 741.248L288.991 764.811C293.705 757.723 296.21 749.395 296.189 740.883L253.637 740.986ZM253.499 740.654C253.587 740.741 253.637 740.861 253.637 740.986L296.189 740.883C296.162 729.492 291.618 718.577 283.554 710.531L253.499 740.654ZM253.172 740.518C253.294 740.518 253.412 740.567 253.499 740.654L283.554 710.531C275.49 702.485 264.564 697.966 253.172 697.966L253.172 740.518ZM252.915 740.597C252.991 740.545 253.081 740.518 253.172 740.518L253.172 697.966C244.659 697.966 236.337 700.492 229.26 705.224L252.915 740.597ZM252.742 740.807C252.778 740.721 252.838 740.648 252.915 740.597L229.26 705.224C222.184 709.957 216.671 716.682 213.418 724.549L252.742 740.807ZM252.716 741.079C252.697 740.988 252.707 740.893 252.742 740.807L213.418 724.549C210.166 732.415 209.32 741.07 210.988 749.418L252.716 741.079ZM252.844 741.32C252.779 741.255 252.734 741.171 252.716 741.079L210.988 749.418C212.656 757.765 216.763 765.43 222.79 771.443L252.844 741.32ZM252.908 741.373C252.886 741.358 252.864 741.34 252.844 741.32L222.79 771.443C224.615 773.264 226.592 774.909 228.693 776.363L252.908 741.373ZM228.659 909.478L261.556 763.547L220.045 754.189L187.148 900.12L228.659 909.478ZM221.95 899.221C226.68 900.134 229.718 904.779 228.659 909.478L187.148 900.12C182.925 918.852 195.033 937.364 213.887 941.003L221.95 899.221ZM211.943 906.038C212.81 901.383 217.301 898.324 221.95 899.221L213.887 941.003C232.418 944.579 250.318 932.386 253.775 913.832L211.943 906.038ZM218.584 870.396L211.943 906.038L253.775 913.832L260.416 878.19L218.584 870.396ZM260.776 917.394V874.293H218.224V917.394H260.776ZM249.607 906.225C255.776 906.225 260.776 911.226 260.776 917.394H218.224C218.224 934.727 232.275 948.778 249.607 948.778V906.225ZM238.439 917.479C238.392 911.278 243.406 906.225 249.607 906.225V948.778C267.034 948.778 281.123 934.58 280.99 917.154L238.439 917.479ZM237.728 824.515L238.439 917.479L280.99 917.154L280.279 824.19L237.728 824.515ZM287.936 909.6L280.197 822.47L237.811 826.235L245.551 913.365L287.936 909.6ZM273.009 898.856C280.221 897.133 287.28 902.214 287.936 909.6L245.551 913.365C247.192 931.841 264.854 944.553 282.896 940.244L273.009 898.856ZM263.8 912.37C262.925 906.165 266.914 900.312 273.009 898.856L282.896 940.244C298.145 936.601 308.123 921.959 305.936 906.433L263.8 912.37ZM242.743 762.919L263.8 912.37L305.936 906.433L284.879 756.982L242.743 762.919ZM253.558 741.248C253.517 741.31 253.462 741.36 253.398 741.396L274.223 778.504C280.139 775.184 285.208 770.5 288.991 764.811L253.558 741.248Z" fill="white" mask="url(#path-7-outside-1_187_134)"/>
<path fill-rule="evenodd" clip-rule="evenodd" d="M242.776 721.817C245.929 720.431 249.461 719.699 253.061 719.699C256.64 719.699 260.128 720.422 263.234 721.768L263.234 474.152H242.776L242.776 721.817Z" fill="#2C4DBB"/>
<defs>
<linearGradient id="paint0_linear_187_134" x1="760.767" y1="711.663" x2="282.055" y2="524.883" gradientUnits="userSpaceOnUse">
<stop stop-color="#7696FF"/>
<stop offset="1" stop-color="#2D5EFE"/>
</linearGradient>
<linearGradient id="paint1_linear_187_134" x1="883.31" y1="403.16" x2="59.6776" y2="335.035" gradientUnits="userSpaceOnUse">
<stop stop-color="#7696FF"/>
<stop offset="1" stop-color="#2659FE"/>
</linearGradient>
</defs>
</svg>
